<svg id="Layer_1" data-name="Layer 1" xmlns="http://www.w3.org/2000/svg" viewBox="0 0 400 400" xmlns:bx="https://boxy-svg.com">
  <defs>
    <style>.cls-1{fill:#1d1d1b;}</style>
  </defs>
  <bx:title>US Air Force Logo 02 20190324</bx:title>
  <g transform="matrix(1.061096, 0, 0, 1.061096, -154.103638, -25.700409)" style="">
    <path class="cls-1" d="M314,291.52a19.8,19.8,0,1,0,19.8-19.79A19.8,19.8,0,0,0,314,291.52Z"></path>
    <polygon class="cls-1" points="330.02 229.96 159.72 106.25 188.1 165.43 319.87 261.13 330.02 229.96" style=""></polygon>
    <polygon class="cls-1" points="317.23 268.98 195.36 180.43 223.83 239.66 264.23 269.01 317.23 268.98"></polygon>
    <polygon class="cls-1" points="287.24 285.74 253.97 309.86 294.47 339.32 307.13 300.28 287.24 285.74"></polygon>
    <polygon class="cls-1" points="366.96 343.65 333.72 367.81 300.49 343.63 333.76 319.5 366.9 343.65 366.96 343.65"></polygon>
    <polygon class="cls-1" points="337.41 229.92 347.53 261.14 479.27 165.49 507.71 106.25 337.41 229.92"></polygon>
    <polygon class="cls-1" points="403.19 269 403.19 269 403.19 269 403.19 269 443.62 239.71 472.1 180.43 350.17 269.01 403.19 269"></polygon>
    <polygon class="cls-1" points="360.13 300.37 373.01 339.3 413.44 309.87 380.3 285.77 360.13 300.37"></polygon>
    <polygon class="cls-1" points="483.6 57.62 441.96 144.22 503.68 99.39 483.6 57.62"></polygon>
    <polygon class="cls-1" points="163.79 99.4 225.47 144.23 183.85 57.6 163.79 99.4" style=""></polygon>
  </g>
</svg>